<?xml version="1.0" standalone="no"?>
<!DOCTYPE svg PUBLIC "-//W3C//DTD SVG 20010904//EN"
 "http://www.w3.org/TR/2001/REC-SVG-20010904/DTD/svg10.dtd">
<svg version="1.0" xmlns="http://www.w3.org/2000/svg"
 width="150.000000pt" height="100.000000pt" viewBox="0 0 150.000000 100.000000"
 preserveAspectRatio="xMidYMid meet">

<g transform="translate(0.000000,100.000000) scale(0.100000,-0.100000)"
fill="#000000" stroke="none">
<path d="M624 990 c-191 -20 -353 -78 -418 -150 l-36 -40 0 -210 0 -210 36
-40 c71 -78 224 -131 436 -151 252 -24 546 33 659 128 55 47 59 64 59 276 0
185 -1 196 -23 228 -80 119 -421 200 -713 169z m-82 -116 c59 -19 81 -23 97
-15 17 9 25 5 55 -31 19 -24 34 -43 33 -44 -1 -1 -45 1 -97 5 -65 4 -94 10
-93 18 1 6 -30 22 -70 36 l-72 24 30 16 c38 20 27 21 117 -9z m508 21 c0 -3
-7 -21 -15 -41 -12 -29 -18 -34 -38 -29 -17 5 -45 -4 -87 -25 -59 -30 -63 -31
-103 -17 l-42 14 60 31 c51 26 57 31 40 38 -15 6 -2 11 50 20 80 13 135 16
135 9z m-304 -141 c35 -9 30 -18 -26 -44 -51 -24 -60 -34 -37 -43 8 -4 7 -6
-3 -6 -8 -1 -54 -7 -102 -15 -49 -7 -88 -11 -88 -10 0 2 7 22 16 44 15 37 19
40 44 35 20 -4 45 2 87 24 32 17 64 28 71 25 8 -2 25 -7 38 -10z m264 -10 c11
-4 11 -7 2 -13 -7 -4 17 -17 63 -31 l76 -24 -34 -18 c-34 -17 -37 -17 -109 8
-42 14 -84 22 -98 19 -20 -4 -33 3 -64 34 l-39 40 94 -5 c52 -3 101 -8 109
-10z"/>
</g>
</svg>
