<?xml version="1.0" encoding="UTF-8"?>
<!DOCTYPE svg PUBLIC "-//W3C//DTD SVG 1.1//EN" "http://www.w3.org/Graphics/SVG/1.1/DTD/svg11.dtd">
<svg xmlns="http://www.w3.org/2000/svg" version="1.1" width="150px" height="100px" style="shape-rendering:geometricPrecision; text-rendering:geometricPrecision; image-rendering:optimizeQuality; fill-rule:evenodd; clip-rule:evenodd" xmlns:xlink="http://www.w3.org/1999/xlink">
<g><path style="opacity:0.994" fill="#bebebe" d="M 61.5,-0.5 C 71.1667,-0.5 80.8333,-0.5 90.5,-0.5C 102.217,0.819608 113.55,3.98628 124.5,9C 132.359,12.2209 136.025,18.0542 135.5,26.5C 130.576,33.4876 123.909,38.3209 115.5,41C 88.0433,48.6407 60.7099,48.3073 33.5,40C 25.6633,37.2728 19.6633,32.4395 15.5,25.5C 15.7535,18.4014 19.0868,13.2347 25.5,10C 36.9833,4.3005 48.9833,0.800502 61.5,-0.5 Z"/></g>
<g><path style="opacity:1" fill="#fefefe" d="M 44.5,9.5 C 50.213,10.9593 55.8796,12.626 61.5,14.5C 62.7481,13.9598 63.9148,13.2931 65,12.5C 67.6833,15.0159 70.1833,17.6826 72.5,20.5C 71.5,20.8333 70.5,21.1667 69.5,21.5C 63.4877,20.9657 57.4877,20.2991 51.5,19.5C 52.0253,18.8076 52.6919,18.3076 53.5,18C 48.7574,16.5304 44.0907,14.8637 39.5,13C 41.2331,11.8111 42.8998,10.6444 44.5,9.5 Z"/></g>
<g><path style="opacity:1" fill="#fefefe" d="M 103.5,8.5 C 104.376,8.36912 105.043,8.70245 105.5,9.5C 103.924,11.9793 102.924,14.646 102.5,17.5C 100.599,17.5668 98.7659,17.2335 97,16.5C 92.6667,18.5 88.3333,20.5 84,22.5C 81.2508,22.026 78.7508,21.026 76.5,19.5C 79.8878,17.1394 83.5544,15.3061 87.5,14C 86.6721,13.0853 85.6721,12.4186 84.5,12C 91.0097,11.0286 97.343,9.8619 103.5,8.5 Z"/></g>
<g><path style="opacity:1" fill="#fefefe" d="M 68.5,22.5 C 71.6957,22.8986 74.6957,23.8986 77.5,25.5C 73.705,27.2315 70.0383,29.2315 66.5,31.5C 67.376,32.2508 68.376,32.7508 69.5,33C 62.8095,34.122 56.1428,35.2886 49.5,36.5C 48.8627,33.6934 49.5294,31.0267 51.5,28.5C 53.4132,27.9488 55.4132,27.7821 57.5,28C 61.2585,26.1207 64.9252,24.2874 68.5,22.5 Z"/></g>
<g><path style="opacity:1" fill="#fefefe" d="M 80.5,24.5 C 81.4486,23.8476 82.6153,23.5143 84,23.5C 90.1503,24.1767 96.3169,24.6767 102.5,25C 101.833,25.6667 101.167,26.3333 100.5,27C 105.102,28.8671 109.768,30.5338 114.5,32C 112.44,33.6965 110.107,34.8631 107.5,35.5C 102.432,34.0328 97.4317,32.3661 92.5,30.5C 91.2519,31.0402 90.0852,31.7069 89,32.5C 86.2972,29.6286 83.4639,26.9619 80.5,24.5 Z"/></g>
<g><path style="opacity:0.996" fill="#7e7e7e" d="M 15.5,25.5 C 19.6633,32.4395 25.6633,37.2728 33.5,40C 60.7099,48.3073 88.0433,48.6407 115.5,41C 123.909,38.3209 130.576,33.4876 135.5,26.5C 135.667,38.1714 135.5,49.8381 135,61.5C 131.915,67.6357 127.081,71.8023 120.5,74C 106.186,79.469 91.3527,81.969 76,81.5C 57.4356,82.3877 39.9356,78.5543 23.5,70C 20.2379,67.408 17.7379,64.2413 16,60.5C 15.5001,48.8381 15.3335,37.1714 15.5,25.5 Z"/></g>
</svg>
