<?xml version="1.0" encoding="UTF-8"?>
<!DOCTYPE svg PUBLIC "-//W3C//DTD SVG 1.1//EN" "http://www.w3.org/Graphics/SVG/1.1/DTD/svg11.dtd">
<svg xmlns="http://www.w3.org/2000/svg" version="1.1" width="150px" height="100px" style="shape-rendering:geometricPrecision; text-rendering:geometricPrecision; image-rendering:optimizeQuality; fill-rule:evenodd; clip-rule:evenodd" xmlns:xlink="http://www.w3.org/1999/xlink">
<g><path style="opacity:0.993" fill="#5fbf00" d="M 61.5,-0.5 C 71.1667,-0.5 80.8333,-0.5 90.5,-0.5C 102.217,0.819608 113.55,3.98628 124.5,9C 132.359,12.2209 136.025,18.0542 135.5,26.5C 129.569,34.5499 121.569,39.7166 111.5,42C 91.7116,46.7141 71.7116,47.7141 51.5,45C 41.0587,43.2985 31.3921,39.6318 22.5,34C 19.1151,31.471 16.7818,28.3044 15.5,24.5C 16.224,17.9309 19.5573,13.0975 25.5,10C 36.9833,4.3005 48.9833,0.800502 61.5,-0.5 Z"/></g>
<g><path style="opacity:1" fill="#ccea3a" d="M 98.5,9.5 C 100.604,9.2011 102.604,9.53443 104.5,10.5C 103.786,12.8111 102.786,14.9777 101.5,17C 99.9651,17.4962 98.4651,17.3295 97,16.5C 92.636,18.5165 88.3027,20.5165 84,22.5C 81.3708,21.791 78.8708,20.791 76.5,19.5C 80.3177,17.7582 83.9843,15.7582 87.5,13.5C 86.624,12.7492 85.624,12.2492 84.5,12C 89.336,11.3196 94.0027,10.4862 98.5,9.5 Z"/></g>
<g><path style="opacity:1" fill="#cbe93a" d="M 44.5,9.5 C 50.0717,10.8566 55.5717,12.5233 61,14.5C 62.4728,14.0969 63.8061,13.4303 65,12.5C 67.2848,14.9066 69.4514,17.4066 71.5,20C 64.8085,20.8309 58.1418,20.6642 51.5,19.5C 52.0253,18.8076 52.6919,18.3076 53.5,18C 48.9093,16.1363 44.2426,14.4696 39.5,13C 41.2331,11.8111 42.8998,10.6444 44.5,9.5 Z"/></g>
<g><path style="opacity:1" fill="#ccea3a" d="M 68.5,22.5 C 71.3076,23.1028 73.9742,24.1028 76.5,25.5C 73.1667,27.5 69.8333,29.5 66.5,31.5C 67.0253,32.1924 67.6919,32.6924 68.5,33C 61.9024,34.6102 55.2358,35.2769 48.5,35C 49.741,32.4372 51.0744,29.9372 52.5,27.5C 58.4896,28.1842 63.8229,26.5175 68.5,22.5 Z"/></g>
<g><path style="opacity:1" fill="#ceea3b" d="M 82.5,24.5 C 87.5111,24.3341 92.5111,24.5007 97.5,25C 102.049,28.3439 107.716,30.6773 114.5,32C 112.167,33.1667 109.833,34.3333 107.5,35.5C 101.495,32.7859 95.3283,31.4526 89,31.5C 85.9394,29.9414 83.7727,27.6081 82.5,24.5 Z"/></g>
<g><path style="opacity:0.983" fill="#007f00" d="M 15.5,24.5 C 16.7818,28.3044 19.1151,31.471 22.5,34C 31.3921,39.6318 41.0587,43.2985 51.5,45C 71.7116,47.7141 91.7116,46.7141 111.5,42C 121.569,39.7166 129.569,34.5499 135.5,26.5C 135.667,38.1714 135.5,49.8381 135,61.5C 131.915,67.6357 127.081,71.8023 120.5,74C 106.186,79.469 91.3527,81.969 76,81.5C 57.4356,82.3877 39.9356,78.5543 23.5,70C 20.2379,67.408 17.7379,64.2413 16,60.5C 15.5001,48.5046 15.3335,36.5046 15.5,24.5 Z"/></g>
</svg>
