<?xml version="1.0" encoding="UTF-8"?>
<!DOCTYPE svg PUBLIC "-//W3C//DTD SVG 1.1//EN" "http://www.w3.org/Graphics/SVG/1.1/DTD/svg11.dtd">
<svg xmlns="http://www.w3.org/2000/svg" version="1.1" width="150px" height="100px" style="shape-rendering:geometricPrecision; text-rendering:geometricPrecision; image-rendering:optimizeQuality; fill-rule:evenodd; clip-rule:evenodd" xmlns:xlink="http://www.w3.org/1999/xlink">
<g><path style="opacity:1" fill="#ce7bec" d="M 61.5,-0.5 C 71.1667,-0.5 80.8333,-0.5 90.5,-0.5C 102.217,0.819608 113.55,3.98628 124.5,9C 132.359,12.2209 136.025,18.0542 135.5,26.5C 130.747,33.723 124.08,38.5564 115.5,41C 90.2606,47.9136 64.9272,48.2469 39.5,42C 30.206,39.7803 22.706,34.947 17,27.5C 16.5002,38.495 16.3335,49.495 16.5,60.5C 15.3396,47.3397 15.173,34.0064 16,20.5C 20.7721,12.7426 27.6054,7.57596 36.5,5C 44.8284,2.50788 53.1618,0.674543 61.5,-0.5 Z"/></g>
<g><path style="opacity:1" fill="#f0efef" d="M 102.5,8.5 C 103.675,8.28099 104.675,8.61432 105.5,9.5C 104.527,12.7789 103.027,15.7789 101,18.5C 99.6667,17.8333 98.3333,17.1667 97,16.5C 92.9091,19.0457 88.5758,21.0457 84,22.5C 81.1098,21.87 78.2764,21.0367 75.5,20C 79.0066,17.746 82.6733,15.746 86.5,14C 85.6721,13.0853 84.6721,12.4186 83.5,12C 89.9962,10.9585 96.3296,9.79186 102.5,8.5 Z"/></g>
<g><path style="opacity:1" fill="#f2f1f1" d="M 44.5,9.5 C 50.2129,10.4598 55.7129,12.1265 61,14.5C 62.0852,13.7069 63.2519,13.0402 64.5,12.5C 67.6511,15.1504 70.6511,17.9838 73.5,21C 65.8225,21.2775 58.1558,20.9442 50.5,20C 51.3279,19.0853 52.3279,18.4186 53.5,18C 48.3634,16.7322 43.3634,15.0656 38.5,13C 40.4319,11.5415 42.4319,10.3748 44.5,9.5 Z"/></g>
<g><path style="opacity:1" fill="#f3f3f3" d="M 67.5,22.5 C 71.0736,22.6911 74.4069,23.6911 77.5,25.5C 74.1667,27.5 70.8333,29.5 67.5,31.5C 68.0253,32.1924 68.6919,32.6924 69.5,33C 62.2112,34.6606 54.8779,35.6606 47.5,36C 48.8333,33.3333 50.1667,30.6667 51.5,28C 57.4298,28.216 62.7631,26.3827 67.5,22.5 Z"/></g>
<g><path style="opacity:1" fill="#f5f5f5" d="M 80.5,24.5 C 87.7189,23.4816 95.0522,23.8149 102.5,25.5C 101.975,26.1924 101.308,26.6924 100.5,27C 105.243,28.4696 109.909,30.1363 114.5,32C 112.44,33.6965 110.107,34.8631 107.5,35.5C 102.275,33.9247 97.1084,32.2581 92,30.5C 90.9148,31.2931 89.7481,31.9598 88.5,32.5C 86.1727,29.5061 83.5061,26.8394 80.5,24.5 Z"/></g>
<g><path style="opacity:1" fill="#8434a4" d="M 135.5,26.5 C 135.667,38.1714 135.5,49.8381 135,61.5C 134.208,64.1064 132.708,66.1064 130.5,67.5C 128.973,67.427 127.973,68.0937 127.5,69.5C 120.619,74.2647 112.953,77.4313 104.5,79C 80.4824,83.355 56.8157,82.0217 33.5,75C 25.4592,72.7818 19.7925,67.9484 16.5,60.5C 16.3335,49.495 16.5002,38.495 17,27.5C 22.706,34.947 30.206,39.7803 39.5,42C 64.9272,48.2469 90.2606,47.9136 115.5,41C 124.08,38.5564 130.747,33.723 135.5,26.5 Z"/></g>
<g><path style="opacity:0.012" fill="#3f3f3f" d="M 130.5,67.5 C 130.027,68.9063 129.027,69.573 127.5,69.5C 127.973,68.0937 128.973,67.427 130.5,67.5 Z"/></g>
</svg>
