<?xml version="1.0" encoding="UTF-8"?>
<!DOCTYPE svg PUBLIC "-//W3C//DTD SVG 1.1//EN" "http://www.w3.org/Graphics/SVG/1.1/DTD/svg11.dtd">
<svg xmlns="http://www.w3.org/2000/svg" version="1.1" width="150px" height="100px" style="shape-rendering:geometricPrecision; text-rendering:geometricPrecision; image-rendering:optimizeQuality; fill-rule:evenodd; clip-rule:evenodd" xmlns:xlink="http://www.w3.org/1999/xlink">
<g><path style="opacity:0.998" fill="#fdfda8" d="M 61.5,-0.5 C 71.1667,-0.5 80.8333,-0.5 90.5,-0.5C 102.217,0.819608 113.55,3.98628 124.5,9C 131.998,11.9899 135.665,17.4899 135.5,25.5C 131.5,32.6528 125.5,37.4861 117.5,40C 90.5827,48.2319 63.5827,48.5652 36.5,41C 27.0882,38.3255 20.0882,32.8255 15.5,24.5C 16.224,17.9309 19.5573,13.0975 25.5,10C 36.9833,4.3005 48.9833,0.800502 61.5,-0.5 Z"/></g>
<g><path style="opacity:1" fill="#7c7c60" d="M 96.5,9.5 C 104.861,8.09699 106.527,10.597 101.5,17C 99.5568,16.6948 97.5568,16.6948 95.5,17C 91.6966,18.9858 87.8633,20.8191 84,22.5C 81.3708,21.791 78.8708,20.791 76.5,19.5C 80.3177,17.7582 83.9843,15.7582 87.5,13.5C 86.624,12.7492 85.624,12.2492 84.5,12C 88.6993,11.4723 92.6993,10.6389 96.5,9.5 Z"/></g>
<g><path style="opacity:1" fill="#7d7c61" d="M 44.5,9.5 C 50.0717,10.8566 55.5717,12.5233 61,14.5C 62.4728,14.0969 63.8061,13.4303 65,12.5C 67.2848,14.9066 69.4514,17.4066 71.5,20C 64.8085,20.8309 58.1418,20.6642 51.5,19.5C 52.0253,18.8076 52.6919,18.3076 53.5,18C 48.9093,16.1363 44.2426,14.4696 39.5,13C 41.2331,11.8111 42.8998,10.6444 44.5,9.5 Z"/></g>
<g><path style="opacity:1" fill="#7b7b60" d="M 68.5,22.5 C 71.3076,23.1028 73.9742,24.1028 76.5,25.5C 73.1667,27.5 69.8333,29.5 66.5,31.5C 67.0253,32.1924 67.6919,32.6924 68.5,33C 61.8821,34.4599 55.2154,35.1266 48.5,35C 49.741,32.4372 51.0744,29.9372 52.5,27.5C 58.4896,28.1842 63.8229,26.5175 68.5,22.5 Z"/></g>
<g><path style="opacity:1" fill="#7a7a5f" d="M 82.5,24.5 C 87.5111,24.3341 92.5111,24.5007 97.5,25C 102.049,28.3439 107.716,30.6773 114.5,32C 112.167,33.1667 109.833,34.3333 107.5,35.5C 102.315,33.9117 97.1487,32.245 92,30.5C 87.2814,31.3281 84.1148,29.3281 82.5,24.5 Z"/></g>
<g><path style="opacity:1" fill="#e5e51a" d="M 15.5,24.5 C 20.0882,32.8255 27.0882,38.3255 36.5,41C 63.5827,48.5652 90.5827,48.2319 117.5,40C 125.5,37.4861 131.5,32.6528 135.5,25.5C 135.667,37.5046 135.5,49.5046 135,61.5C 131.915,67.6357 127.081,71.8023 120.5,74C 106.186,79.469 91.3527,81.969 76,81.5C 57.4356,82.3877 39.9356,78.5543 23.5,70C 20.2379,67.408 17.7379,64.2413 16,60.5C 15.5001,48.5046 15.3335,36.5046 15.5,24.5 Z"/></g>
</svg>
