<?xml version="1.0" encoding="UTF-8"?>
<!DOCTYPE svg PUBLIC "-//W3C//DTD SVG 1.1//EN" "http://www.w3.org/Graphics/SVG/1.1/DTD/svg11.dtd">
<svg xmlns="http://www.w3.org/2000/svg" version="1.1" width="150px" height="100px" style="shape-rendering:geometricPrecision; text-rendering:geometricPrecision; image-rendering:optimizeQuality; fill-rule:evenodd; clip-rule:evenodd" xmlns:xlink="http://www.w3.org/1999/xlink">
<g><path style="opacity:0.996" fill="#3a78a0" d="M 61.5,-0.5 C 71.1667,-0.5 80.8333,-0.5 90.5,-0.5C 102.217,0.819608 113.55,3.98628 124.5,9C 132.359,12.2209 136.025,18.0542 135.5,26.5C 131.801,32.0452 126.801,36.2119 120.5,39C 98.0271,46.5182 75.0271,48.5182 51.5,45C 41.0587,43.2985 31.3921,39.6318 22.5,34C 19.1151,31.471 16.7818,28.3044 15.5,24.5C 16.224,17.9309 19.5573,13.0975 25.5,10C 36.9833,4.3005 48.9833,0.800502 61.5,-0.5 Z"/></g>
<g><path style="opacity:1" fill="#b7d1e0" d="M 96.5,9.5 C 104.861,8.09699 106.527,10.597 101.5,17C 99.9651,17.4962 98.4651,17.3295 97,16.5C 92.6667,18.5 88.3333,20.5 84,22.5C 81.3708,21.791 78.8708,20.791 76.5,19.5C 80.1578,17.6711 83.8244,15.8378 87.5,14C 86.6721,13.0853 85.6721,12.4186 84.5,12C 88.7361,11.6651 92.7361,10.8318 96.5,9.5 Z"/></g>
<g><path style="opacity:1" fill="#b4cfde" d="M 44.5,9.5 C 50.0717,10.8566 55.5717,12.5233 61,14.5C 62.4728,14.0969 63.8061,13.4303 65,12.5C 67.3824,15.4272 69.8824,18.2605 72.5,21C 65.4853,21.0989 58.4853,20.5989 51.5,19.5C 52.0253,18.8076 52.6919,18.3076 53.5,18C 48.9093,16.1363 44.2426,14.4696 39.5,13C 41.2331,11.8111 42.8998,10.6444 44.5,9.5 Z"/></g>
<g><path style="opacity:1" fill="#b7d2e0" d="M 68.5,22.5 C 71.3076,23.1028 73.9742,24.1028 76.5,25.5C 73.1667,27.5 69.8333,29.5 66.5,31.5C 67.0253,32.1924 67.6919,32.6924 68.5,33C 61.8929,34.5475 55.2263,35.2142 48.5,35C 49.741,32.4372 51.0744,29.9372 52.5,27.5C 58.4896,28.1842 63.8229,26.5175 68.5,22.5 Z"/></g>
<g><path style="opacity:1" fill="#b8d2e0" d="M 82.5,24.5 C 88.9092,24.1827 95.2425,24.6827 101.5,26C 98.8333,26.6667 98.8333,27.3333 101.5,28C 105.787,29.4883 110.12,30.8217 114.5,32C 112.167,33.1667 109.833,34.3333 107.5,35.5C 102.315,33.9117 97.1487,32.245 92,30.5C 87.2814,31.3281 84.1148,29.3281 82.5,24.5 Z"/></g>
<g><path style="opacity:0.995" fill="#1b4a78" d="M 15.5,24.5 C 16.7818,28.3044 19.1151,31.471 22.5,34C 31.3921,39.6318 41.0587,43.2985 51.5,45C 75.0271,48.5182 98.0271,46.5182 120.5,39C 126.801,36.2119 131.801,32.0452 135.5,26.5C 135.667,38.1714 135.5,49.8381 135,61.5C 131.915,67.6357 127.081,71.8023 120.5,74C 106.186,79.469 91.3527,81.969 76,81.5C 57.4356,82.3877 39.9356,78.5543 23.5,70C 20.2379,67.408 17.7379,64.2413 16,60.5C 15.5001,48.5046 15.3335,36.5046 15.5,24.5 Z"/></g>
</svg>
