<?xml version="1.0" encoding="UTF-8"?>
<!DOCTYPE svg PUBLIC "-//W3C//DTD SVG 1.1//EN" "http://www.w3.org/Graphics/SVG/1.1/DTD/svg11.dtd">
<svg xmlns="http://www.w3.org/2000/svg" version="1.1" width="150px" height="100px" style="shape-rendering:geometricPrecision; text-rendering:geometricPrecision; image-rendering:optimizeQuality; fill-rule:evenodd; clip-rule:evenodd" xmlns:xlink="http://www.w3.org/1999/xlink">
<g><path style="opacity:0.994" fill="#bdbdbd" d="M 61.5,-0.5 C 71.1667,-0.5 80.8333,-0.5 90.5,-0.5C 102.217,0.819608 113.55,3.98628 124.5,9C 132.359,12.2209 136.025,18.0542 135.5,26.5C 130.747,33.723 124.08,38.5564 115.5,41C 88.0484,48.6409 60.715,48.3076 33.5,40C 25.6633,37.2728 19.6633,32.4395 15.5,25.5C 15.7535,18.4014 19.0868,13.2347 25.5,10C 36.9833,4.3005 48.9833,0.800502 61.5,-0.5 Z"/></g>
<g><path style="opacity:1" fill="#040303" d="M 44.5,9.5 C 50.2894,10.698 55.9561,12.3646 61.5,14.5C 62.7481,13.9598 63.9148,13.2931 65,12.5C 67.6833,15.0159 70.1833,17.6826 72.5,20.5C 65.4873,21.3338 58.4873,21.0005 51.5,19.5C 52.0253,18.8076 52.6919,18.3076 53.5,18C 48.5,16.3333 43.5,14.6667 38.5,13C 40.7274,12.059 42.7274,10.8923 44.5,9.5 Z"/></g>
<g><path style="opacity:1" fill="#050404" d="M 103.5,8.5 C 104.376,8.36912 105.043,8.70245 105.5,9.5C 103.924,11.9793 102.924,14.646 102.5,17.5C 100.738,17.6427 99.0709,17.3094 97.5,16.5C 92.8283,18.5029 88.1616,20.5029 83.5,22.5C 80.8029,21.7676 78.1362,20.9343 75.5,20C 79.2211,17.4728 83.2211,15.4728 87.5,14C 86.6721,13.0853 85.6721,12.4186 84.5,12C 90.9962,10.9585 97.3296,9.79186 103.5,8.5 Z"/></g>
<g><path style="opacity:1" fill="#040404" d="M 68.5,22.5 C 71.6957,22.8986 74.6957,23.8986 77.5,25.5C 73.9999,27.6146 70.3333,29.4479 66.5,31C 67.3279,31.9147 68.3279,32.5814 69.5,33C 62.4958,34.2146 55.4958,35.3813 48.5,36.5C 48.9239,33.646 49.9239,30.9793 51.5,28.5C 53.4132,27.9488 55.4132,27.7821 57.5,28C 61.2585,26.1207 64.9252,24.2874 68.5,22.5 Z"/></g>
<g><path style="opacity:1" fill="#040303" d="M 80.5,24.5 C 81.4486,23.8476 82.6153,23.5143 84,23.5C 90.1823,24.0122 96.349,24.6789 102.5,25.5C 101.975,26.1924 101.308,26.6924 100.5,27C 105.243,28.4696 109.909,30.1363 114.5,32C 112.44,33.6965 110.107,34.8631 107.5,35.5C 102.432,34.0328 97.4317,32.3661 92.5,30.5C 91.1667,31.1667 89.8333,31.8333 88.5,32.5C 86.1456,29.4789 83.4789,26.8123 80.5,24.5 Z"/></g>
<g><path style="opacity:0.996" fill="#7e7e7e" d="M 15.5,25.5 C 19.6633,32.4395 25.6633,37.2728 33.5,40C 60.715,48.3076 88.0484,48.6409 115.5,41C 124.08,38.5564 130.747,33.723 135.5,26.5C 135.667,38.1714 135.5,49.8381 135,61.5C 131.915,67.6357 127.081,71.8023 120.5,74C 106.186,79.469 91.3527,81.969 76,81.5C 57.4356,82.3877 39.9356,78.5543 23.5,70C 20.2379,67.408 17.7379,64.2413 16,60.5C 15.5001,48.8381 15.3335,37.1714 15.5,25.5 Z"/></g>
</svg>
